<?xml version="1.0" encoding="UTF-8" standalone="no"?>
<!-- Uploaded to: SVG Repo, www.svgrepo.com, Generator: SVG Repo Mixer Tools -->

<svg
   fill="#000000"
   height="800px"
   width="800px"
   version="1.1"
   id="Layer_1"
   viewBox="0 0 395 395"
   xml:space="preserve"
   sodipodi:docname="lens-svgrepo-com.svg"
   inkscape:version="1.4.2 (ebf0e940d0, 2025-05-08)"
   xmlns:inkscape="http://www.inkscape.org/namespaces/inkscape"
   xmlns:sodipodi="http://sodipodi.sourceforge.net/DTD/sodipodi-0.dtd"
   xmlns="http://www.w3.org/2000/svg"
   xmlns:svg="http://www.w3.org/2000/svg"><defs
   id="defs10" /><sodipodi:namedview
   id="namedview10"
   pagecolor="#ffffff"
   bordercolor="#000000"
   borderopacity="0.25"
   inkscape:showpageshadow="2"
   inkscape:pageopacity="0.0"
   inkscape:pagecheckerboard="0"
   inkscape:deskcolor="#d1d1d1"
   inkscape:zoom="0.35625"
   inkscape:cx="400"
   inkscape:cy="400"
   inkscape:window-width="1337"
   inkscape:window-height="1031"
   inkscape:window-x="0"
   inkscape:window-y="0"
   inkscape:window-maximized="1"
   inkscape:current-layer="Layer_1" />
<g
   id="g10"
   inkscape:highlight-color="#000000"
   style="fill:#2378cc;fill-opacity:1">
	<path
   d="m 180.52,258.39 -66.97,67.46 c -29.19,-19.16 -51.49,-48 -62.28,-81.92 h 103.37 c 7.26,6.7 16.1,11.73 25.88,14.46 z"
   id="path1"
   style="display:inline;fill:#2378cc;fill-opacity:1" />
	<path
   d="m 230.05,251.68 v 95.75 c -10.49,2.28 -21.39,3.49 -32.55,3.49 -25.19,0 -48.98,-6.11 -69.97,-16.91 l 73.38,-73.38 c 10.61,-0.57 20.54,-3.77 29.14,-8.95 z"
   id="path2"
   style="display:inline;fill:#2378cc;fill-opacity:1" />
	<path
   d="m 142.1,227.93 -94.97,0.08 c -2,-9.86 -3.05,-20.07 -3.05,-30.51 0,-25.19 6.11,-48.98 16.91,-69.97 l 73.38,73.38 c 0.52,9.75 3.27,18.92 7.73,27.02 z"
   id="path3"
   style="display:inline;fill:#2378cc;fill-opacity:1" />
	<path
   d="m 264.64,59.58 -75.24,75.24 c -8.85,1.12 -17.13,4.09 -24.45,8.5 V 47.57 c 10.5,-2.28 21.38,-3.49 32.55,-3.49 24.07,0 46.85,5.58 67.14,15.5 z"
   id="path4"
   style="display:inline;fill:#2378cc;fill-opacity:1" />
	<path
   d="m 148.95,51.96 v 105.11 c -5.65,6.76 -9.91,14.73 -12.34,23.45 L 69.35,113.26 c 18.76,-28.44 46.71,-50.3 79.6,-61.3 z"
   id="path5"
   style="display:inline;fill:#2378cc;fill-opacity:1" />
	<path
   d="m 327.42,279 c -18.74,29.78 -47.43,52.69 -81.37,64.04 v -105.1 c 6.38,-7.64 10.98,-16.81 13.19,-26.86 z"
   id="path6"
   style="display:inline;fill:#2378cc;fill-opacity:1" />
	<path
   d="M 342.31,146.83 H 235.24 c -7.06,-5.28 -15.26,-9.11 -24.16,-11.07 l 68.08,-68.08 c 29.08,18.35 51.58,46.2 63.15,79.15 z"
   id="path7"
   style="display:inline;fill:#2378cc;fill-opacity:1" />
	<path
   d="M 368.41,98.48 V 26.59 H 296.52 C 267.41,9.68 233.59,0 197.5,0 161.41,0 127.59,9.68 98.48,26.59 H 26.59 V 98.48 C 9.68,127.59 0,161.41 0,197.5 c 0,36.09 9.68,69.91 26.59,99.02 v 71.89 h 71.89 c 29.11,16.91 62.93,26.59 99.02,26.59 36.09,0 69.91,-9.68 99.02,-26.59 h 71.89 V 296.52 C 385.32,267.41 395,233.59 395,197.5 395,161.41 385.32,127.59 368.41,98.48 Z M 197.5,366.92 c -93.42,0 -169.42,-76 -169.42,-169.42 0,-93.42 76,-169.42 169.42,-169.42 93.42,0 169.42,76 169.42,169.42 0,93.42 -76,169.42 -169.42,169.42 z"
   id="path8"
   style="display:none;fill:#2378cc;fill-opacity:1" />
	<path
   d="m 350.92,197.5 c 0,24.06 -5.58,46.85 -15.49,67.14 L 260.18,189.4 c -1.25,-9.71 -4.7,-18.75 -9.85,-26.57 0,0 96.57,-0.01 96.63,-0.01 2.59,11.15 3.96,22.76 3.96,34.68 z"
   id="path9"
   style="display:inline;fill:#2378cc;fill-opacity:1" />
	<path
   d="m 244.72,197.5 c 0,26.04 -21.18,47.22 -47.22,47.22 -26.04,0 -47.22,-21.18 -47.22,-47.22 0,-26.04 21.18,-47.22 47.22,-47.22 26.04,0 47.22,21.18 47.22,47.22 z"
   id="path10"
   style="display:none;fill:#2378cc;fill-opacity:1" />
</g>
</svg>
